<?xml version="1.0" encoding="UTF-8" standalone="no"?>
<!DOCTYPE svg PUBLIC "-//W3C//DTD SVG 1.1//EN"
 "http://www.w3.org/Graphics/SVG/1.1/DTD/svg11.dtd">
<!-- Generated by graphviz version 2.40.1 (20161225.0304)
 -->
<!-- Title: dependencies Pages: 1 -->
<svg width="2494pt" height="211pt"
 viewBox="0.00 0.00 2494.00 211.00" xmlns="http://www.w3.org/2000/svg" xmlns:xlink="http://www.w3.org/1999/xlink">
<g id="graph0" class="graph" transform="scale(1 1) rotate(0) translate(4 207)">
<title>dependencies</title>
<polygon fill="#ffffff" stroke="transparent" points="-4,4 -4,-207 2490,-207 2490,4 -4,4"/>
<text text-anchor="start" x="1222.0091" y="-42.4" font-family="sans-serif" font-weight="bold" font-size="14.00" fill="#000000">Legend</text>
<polygon fill="#ffffb3" stroke="transparent" points="1009,-10 1009,-30 1029,-30 1029,-10 1009,-10"/>
<text text-anchor="start" x="1032.629" y="-15.4" font-family="sans-serif" font-size="14.00" fill="#000000"> &#160;Declarations</text>
<polygon fill="#8dd3c7" stroke="transparent" points="1122,-10 1122,-30 1142,-30 1142,-10 1122,-10"/>
<text text-anchor="start" x="1145.7251" y="-15.4" font-family="sans-serif" font-size="14.00" fill="#000000"> &#160;Module</text>
<polygon fill="#80b1d3" stroke="transparent" points="1208,-10 1208,-30 1228,-30 1228,-10 1208,-10"/>
<text text-anchor="start" x="1231.7812" y="-15.4" font-family="sans-serif" font-size="14.00" fill="#000000"> &#160;Bootstrap</text>
<polygon fill="#fdb462" stroke="transparent" points="1305,-10 1305,-30 1325,-30 1325,-10 1305,-10"/>
<text text-anchor="start" x="1328.6732" y="-15.4" font-family="sans-serif" font-size="14.00" fill="#000000"> &#160;Providers</text>
<polygon fill="#fb8072" stroke="transparent" points="1401,-10 1401,-30 1421,-30 1421,-10 1401,-10"/>
<text text-anchor="start" x="1424.7258" y="-15.4" font-family="sans-serif" font-size="14.00" fill="#000000"> &#160;Exports</text>
<g id="clust1" class="cluster">
<title>cluster_DashboardModule</title>
<polygon fill="none" stroke="#000000" stroke-dasharray="1,5" points="8,-70 8,-195 2478,-195 2478,-70 8,-70"/>
</g>
<g id="clust2" class="cluster">
<title>cluster_DashboardModule_declarations</title>
<polygon fill="none" stroke="#000000" points="16,-78 16,-130 2470,-130 2470,-78 16,-78"/>
</g>
<!-- AddAssignmentComponent -->
<g id="node1" class="node">
<title>AddAssignmentComponent</title>
<polygon fill="#ffffb3" stroke="#000000" points="2462.3215,-122 2289.6785,-122 2289.6785,-86 2462.3215,-86 2462.3215,-122"/>
<text text-anchor="middle" x="2376" y="-99.8" font-family="Times,serif" font-size="14.00" fill="#000000">AddAssignmentComponent</text>
</g>
<!-- DashboardModule -->
<g id="node14" class="node">
<title>DashboardModule</title>
<polygon fill="#8dd3c7" stroke="#000000" points="1289.191,-187 1286.191,-191 1265.191,-191 1262.191,-187 1168.809,-187 1168.809,-151 1289.191,-151 1289.191,-187"/>
<text text-anchor="middle" x="1229" y="-164.8" font-family="Times,serif" font-size="14.00" fill="#000000">DashboardModule</text>
</g>
<!-- AddAssignmentComponent&#45;&gt;DashboardModule -->
<g id="edge1" class="edge">
<title>AddAssignmentComponent&#45;&gt;DashboardModule</title>
<path fill="none" stroke="#000000" d="M2376,-122.0908C2376,-145.1328 2376,-182 2376,-182 2376,-182 1299.4547,-182 1299.4547,-182"/>
<polygon fill="#000000" stroke="#000000" points="1299.4548,-178.5001 1289.4547,-182 1299.4547,-185.5001 1299.4548,-178.5001"/>
</g>
<!-- DashboardAdminComponent -->
<g id="node2" class="node">
<title>DashboardAdminComponent</title>
<polygon fill="#ffffb3" stroke="#000000" points="2271.3613,-122 2090.6387,-122 2090.6387,-86 2271.3613,-86 2271.3613,-122"/>
<text text-anchor="middle" x="2181" y="-99.8" font-family="Times,serif" font-size="14.00" fill="#000000">DashboardAdminComponent</text>
</g>
<!-- DashboardAdminComponent&#45;&gt;DashboardModule -->
<g id="edge2" class="edge">
<title>DashboardAdminComponent&#45;&gt;DashboardModule</title>
<path fill="none" stroke="#000000" d="M2181,-122.0449C2181,-143.6623 2181,-177 2181,-177 2181,-177 1299.2741,-177 1299.2741,-177"/>
<polygon fill="#000000" stroke="#000000" points="1299.2741,-173.5001 1289.2741,-177 1299.2741,-180.5001 1299.2741,-173.5001"/>
</g>
<!-- DashboardComponent -->
<g id="node3" class="node">
<title>DashboardComponent</title>
<polygon fill="#ffffb3" stroke="#000000" points="2072.9734,-122 1931.0266,-122 1931.0266,-86 2072.9734,-86 2072.9734,-122"/>
<text text-anchor="middle" x="2002" y="-99.8" font-family="Times,serif" font-size="14.00" fill="#000000">DashboardComponent</text>
</g>
<!-- DashboardComponent&#45;&gt;DashboardModule -->
<g id="edge3" class="edge">
<title>DashboardComponent&#45;&gt;DashboardModule</title>
<path fill="none" stroke="#000000" d="M2002,-122.2228C2002,-142.3652 2002,-172 2002,-172 2002,-172 1299.334,-172 1299.334,-172"/>
<polygon fill="#000000" stroke="#000000" points="1299.3341,-168.5001 1289.334,-172 1299.334,-175.5001 1299.3341,-168.5001"/>
</g>
<!-- DashboardRecruiterComponent -->
<g id="node4" class="node">
<title>DashboardRecruiterComponent</title>
<polygon fill="#ffffb3" stroke="#000000" points="1913.0562,-122 1718.9438,-122 1718.9438,-86 1913.0562,-86 1913.0562,-122"/>
<text text-anchor="middle" x="1816" y="-99.8" font-family="Times,serif" font-size="14.00" fill="#000000">DashboardRecruiterComponent</text>
</g>
<!-- DashboardRecruiterComponent&#45;&gt;DashboardModule -->
<g id="edge4" class="edge">
<title>DashboardRecruiterComponent&#45;&gt;DashboardModule</title>
<path fill="none" stroke="#000000" d="M1816,-122.2222C1816,-140.8285 1816,-167 1816,-167 1816,-167 1299.3343,-167 1299.3343,-167"/>
<polygon fill="#000000" stroke="#000000" points="1299.3343,-163.5001 1289.3343,-167 1299.3343,-170.5001 1299.3343,-163.5001"/>
</g>
<!-- DashboardUserComponent -->
<g id="node5" class="node">
<title>DashboardUserComponent</title>
<polygon fill="#ffffb3" stroke="#000000" points="1701.4003,-122 1532.5997,-122 1532.5997,-86 1701.4003,-86 1701.4003,-122"/>
<text text-anchor="middle" x="1617" y="-99.8" font-family="Times,serif" font-size="14.00" fill="#000000">DashboardUserComponent</text>
</g>
<!-- DashboardUserComponent&#45;&gt;DashboardModule -->
<g id="edge5" class="edge">
<title>DashboardUserComponent&#45;&gt;DashboardModule</title>
<path fill="none" stroke="#000000" d="M1617,-122.0336C1617,-139.0597 1617,-162 1617,-162 1617,-162 1299.1993,-162 1299.1993,-162"/>
<polygon fill="#000000" stroke="#000000" points="1299.1993,-158.5001 1289.1993,-162 1299.1993,-165.5001 1299.1993,-158.5001"/>
</g>
<!-- DetailAssignmentComponent -->
<g id="node6" class="node">
<title>DetailAssignmentComponent</title>
<polygon fill="#ffffb3" stroke="#000000" points="1515.4227,-122 1332.5773,-122 1332.5773,-86 1515.4227,-86 1515.4227,-122"/>
<text text-anchor="middle" x="1424" y="-99.8" font-family="Times,serif" font-size="14.00" fill="#000000">DetailAssignmentComponent</text>
</g>
<!-- DetailAssignmentComponent&#45;&gt;DashboardModule -->
<g id="edge6" class="edge">
<title>DetailAssignmentComponent&#45;&gt;DashboardModule</title>
<path fill="none" stroke="#000000" d="M1424,-122.2396C1424,-137.5706 1424,-157 1424,-157 1424,-157 1299.0976,-157 1299.0976,-157"/>
<polygon fill="#000000" stroke="#000000" points="1299.0976,-153.5001 1289.0976,-157 1299.0975,-160.5001 1299.0976,-153.5001"/>
</g>
<!-- EditAssignmentComponent -->
<g id="node7" class="node">
<title>EditAssignmentComponent</title>
<polygon fill="#ffffb3" stroke="#000000" points="1314.549,-122 1143.451,-122 1143.451,-86 1314.549,-86 1314.549,-122"/>
<text text-anchor="middle" x="1229" y="-99.8" font-family="Times,serif" font-size="14.00" fill="#000000">EditAssignmentComponent</text>
</g>
<!-- EditAssignmentComponent&#45;&gt;DashboardModule -->
<g id="edge7" class="edge">
<title>EditAssignmentComponent&#45;&gt;DashboardModule</title>
<path fill="none" stroke="#000000" d="M1229,-122.1061C1229,-122.1061 1229,-140.991 1229,-140.991"/>
<polygon fill="#000000" stroke="#000000" points="1225.5001,-140.9909 1229,-150.991 1232.5001,-140.991 1225.5001,-140.9909"/>
</g>
<!-- ManageassignmentsComponent -->
<g id="node8" class="node">
<title>ManageassignmentsComponent</title>
<polygon fill="#ffffb3" stroke="#000000" points="1125.3557,-122 930.6443,-122 930.6443,-86 1125.3557,-86 1125.3557,-122"/>
<text text-anchor="middle" x="1028" y="-99.8" font-family="Times,serif" font-size="14.00" fill="#000000">ManageassignmentsComponent</text>
</g>
<!-- ManageassignmentsComponent&#45;&gt;DashboardModule -->
<g id="edge8" class="edge">
<title>ManageassignmentsComponent&#45;&gt;DashboardModule</title>
<path fill="none" stroke="#000000" d="M1028,-122.2396C1028,-137.5706 1028,-157 1028,-157 1028,-157 1158.6934,-157 1158.6934,-157"/>
<polygon fill="#000000" stroke="#000000" points="1158.6934,-160.5001 1168.6934,-157 1158.6933,-153.5001 1158.6934,-160.5001"/>
</g>
<!-- ManagecompaniesComponent -->
<g id="node9" class="node">
<title>ManagecompaniesComponent</title>
<polygon fill="#ffffb3" stroke="#000000" points="912.2906,-122 725.7094,-122 725.7094,-86 912.2906,-86 912.2906,-122"/>
<text text-anchor="middle" x="819" y="-99.8" font-family="Times,serif" font-size="14.00" fill="#000000">ManagecompaniesComponent</text>
</g>
<!-- ManagecompaniesComponent&#45;&gt;DashboardModule -->
<g id="edge9" class="edge">
<title>ManagecompaniesComponent&#45;&gt;DashboardModule</title>
<path fill="none" stroke="#000000" d="M819,-122.0336C819,-139.0597 819,-162 819,-162 819,-162 1158.5031,-162 1158.5031,-162"/>
<polygon fill="#000000" stroke="#000000" points="1158.5031,-165.5001 1168.5031,-162 1158.5031,-158.5001 1158.5031,-165.5001"/>
</g>
<!-- ManagereviewsComponent -->
<g id="node10" class="node">
<title>ManagereviewsComponent</title>
<polygon fill="#ffffb3" stroke="#000000" points="707.9524,-122 538.0476,-122 538.0476,-86 707.9524,-86 707.9524,-122"/>
<text text-anchor="middle" x="623" y="-99.8" font-family="Times,serif" font-size="14.00" fill="#000000">ManagereviewsComponent</text>
</g>
<!-- ManagereviewsComponent&#45;&gt;DashboardModule -->
<g id="edge10" class="edge">
<title>ManagereviewsComponent&#45;&gt;DashboardModule</title>
<path fill="none" stroke="#000000" d="M623,-122.2222C623,-140.8285 623,-167 623,-167 623,-167 1158.6789,-167 1158.6789,-167"/>
<polygon fill="#000000" stroke="#000000" points="1158.6789,-170.5001 1168.6789,-167 1158.6789,-163.5001 1158.6789,-170.5001"/>
</g>
<!-- ManageskillsComponent -->
<g id="node11" class="node">
<title>ManageskillsComponent</title>
<polygon fill="#ffffb3" stroke="#000000" points="519.9818,-122 364.0182,-122 364.0182,-86 519.9818,-86 519.9818,-122"/>
<text text-anchor="middle" x="442" y="-99.8" font-family="Times,serif" font-size="14.00" fill="#000000">ManageskillsComponent</text>
</g>
<!-- ManageskillsComponent&#45;&gt;DashboardModule -->
<g id="edge11" class="edge">
<title>ManageskillsComponent&#45;&gt;DashboardModule</title>
<path fill="none" stroke="#000000" d="M442,-122.2228C442,-142.3652 442,-172 442,-172 442,-172 1158.877,-172 1158.877,-172"/>
<polygon fill="#000000" stroke="#000000" points="1158.8771,-175.5001 1168.877,-172 1158.877,-168.5001 1158.8771,-175.5001"/>
</g>
<!-- ManagetagsComponent -->
<g id="node12" class="node">
<title>ManagetagsComponent</title>
<polygon fill="#ffffb3" stroke="#000000" points="346.4706,-122 197.5294,-122 197.5294,-86 346.4706,-86 346.4706,-122"/>
<text text-anchor="middle" x="272" y="-99.8" font-family="Times,serif" font-size="14.00" fill="#000000">ManagetagsComponent</text>
</g>
<!-- ManagetagsComponent&#45;&gt;DashboardModule -->
<g id="edge12" class="edge">
<title>ManagetagsComponent&#45;&gt;DashboardModule</title>
<path fill="none" stroke="#000000" d="M272,-122.0449C272,-143.6623 272,-177 272,-177 272,-177 1158.7728,-177 1158.7728,-177"/>
<polygon fill="#000000" stroke="#000000" points="1158.7729,-180.5001 1168.7728,-177 1158.7728,-173.5001 1158.7729,-180.5001"/>
</g>
<!-- ManageusersComponent -->
<g id="node13" class="node">
<title>ManageusersComponent</title>
<polygon fill="#ffffb3" stroke="#000000" points="179.6853,-122 24.3147,-122 24.3147,-86 179.6853,-86 179.6853,-122"/>
<text text-anchor="middle" x="102" y="-99.8" font-family="Times,serif" font-size="14.00" fill="#000000">ManageusersComponent</text>
</g>
<!-- ManageusersComponent&#45;&gt;DashboardModule -->
<g id="edge13" class="edge">
<title>ManageusersComponent&#45;&gt;DashboardModule</title>
<path fill="none" stroke="#000000" d="M102,-122.0908C102,-145.1328 102,-182 102,-182 102,-182 1158.806,-182 1158.806,-182"/>
<polygon fill="#000000" stroke="#000000" points="1158.8061,-185.5001 1168.806,-182 1158.806,-178.5001 1158.8061,-185.5001"/>
</g>
</g>
</svg>
