<?xml version="1.0" encoding="UTF-8" standalone="no"?>
<!DOCTYPE svg PUBLIC "-//W3C//DTD SVG 1.1//EN"
 "http://www.w3.org/Graphics/SVG/1.1/DTD/svg11.dtd">
<!-- Generated by graphviz version 2.40.1 (20161225.0304)
 -->
<!-- Title: dependencies Pages: 1 -->
<svg width="2209pt" height="284pt"
 viewBox="0.00 0.00 2209.00 284.00" xmlns="http://www.w3.org/2000/svg" xmlns:xlink="http://www.w3.org/1999/xlink">
<g id="graph0" class="graph" transform="scale(1 1) rotate(0) translate(4 280)">
<title>dependencies</title>
<polygon fill="#ffffff" stroke="transparent" points="-4,4 -4,-280 2205,-280 2205,4 -4,4"/>
<text text-anchor="start" x="1079.5091" y="-42.4" font-family="sans-serif" font-weight="bold" font-size="14.00" fill="#000000">Legend</text>
<polygon fill="#ffffb3" stroke="transparent" points="866.5,-10 866.5,-30 886.5,-30 886.5,-10 866.5,-10"/>
<text text-anchor="start" x="890.129" y="-15.4" font-family="sans-serif" font-size="14.00" fill="#000000"> &#160;Declarations</text>
<polygon fill="#8dd3c7" stroke="transparent" points="979.5,-10 979.5,-30 999.5,-30 999.5,-10 979.5,-10"/>
<text text-anchor="start" x="1003.2251" y="-15.4" font-family="sans-serif" font-size="14.00" fill="#000000"> &#160;Module</text>
<polygon fill="#80b1d3" stroke="transparent" points="1065.5,-10 1065.5,-30 1085.5,-30 1085.5,-10 1065.5,-10"/>
<text text-anchor="start" x="1089.2812" y="-15.4" font-family="sans-serif" font-size="14.00" fill="#000000"> &#160;Bootstrap</text>
<polygon fill="#fdb462" stroke="transparent" points="1162.5,-10 1162.5,-30 1182.5,-30 1182.5,-10 1162.5,-10"/>
<text text-anchor="start" x="1186.1732" y="-15.4" font-family="sans-serif" font-size="14.00" fill="#000000"> &#160;Providers</text>
<polygon fill="#fb8072" stroke="transparent" points="1258.5,-10 1258.5,-30 1278.5,-30 1278.5,-10 1258.5,-10"/>
<text text-anchor="start" x="1282.2258" y="-15.4" font-family="sans-serif" font-size="14.00" fill="#000000"> &#160;Exports</text>
<g id="clust1" class="cluster">
<title>cluster_AppModule</title>
<polygon fill="none" stroke="#000000" stroke-dasharray="1,5" points="8,-70 8,-268 2193,-268 2193,-70 8,-70"/>
</g>
<g id="clust2" class="cluster">
<title>cluster_AppModule_declarations</title>
<polygon fill="none" stroke="#000000" points="924,-78 924,-130 2185,-130 2185,-78 924,-78"/>
</g>
<g id="clust11" class="cluster">
<title>cluster_AppModule_imports</title>
<polygon fill="none" stroke="#000000" points="196,-78 196,-130 916,-130 916,-78 196,-78"/>
</g>
<g id="clust12" class="cluster">
<title>cluster_AppModule_exports</title>
<polygon fill="none" stroke="#000000" points="1016,-208 1016,-260 1140,-260 1140,-208 1016,-208"/>
</g>
<g id="clust14" class="cluster">
<title>cluster_AppModule_providers</title>
<polygon fill="none" stroke="#000000" points="16,-78 16,-130 188,-130 188,-78 16,-78"/>
</g>
<!-- AccountComponent -->
<g id="node1" class="node">
<title>AccountComponent</title>
<polygon fill="#ffffb3" stroke="#000000" points="2177.259,-122 2048.741,-122 2048.741,-86 2177.259,-86 2177.259,-122"/>
<text text-anchor="middle" x="2113" y="-99.8" font-family="Times,serif" font-size="14.00" fill="#000000">AccountComponent</text>
</g>
<!-- AppModule -->
<g id="node9" class="node">
<title>AppModule</title>
<polygon fill="#8dd3c7" stroke="#000000" points="1119.6571,-187 1116.6571,-191 1095.6571,-191 1092.6571,-187 1036.3429,-187 1036.3429,-151 1119.6571,-151 1119.6571,-187"/>
<text text-anchor="middle" x="1078" y="-164.8" font-family="Times,serif" font-size="14.00" fill="#000000">AppModule</text>
</g>
<!-- AccountComponent&#45;&gt;AppModule -->
<g id="edge1" class="edge">
<title>AccountComponent&#45;&gt;AppModule</title>
<path fill="none" stroke="#000000" d="M2113,-122.0908C2113,-145.1328 2113,-182 2113,-182 2113,-182 1129.8551,-182 1129.8551,-182"/>
<polygon fill="#000000" stroke="#000000" points="1129.8552,-178.5001 1119.8551,-182 1129.8551,-185.5001 1129.8552,-178.5001"/>
</g>
<!-- AddCompanyComponent -->
<g id="node2" class="node">
<title>AddCompanyComponent</title>
<polygon fill="#ffffb3" stroke="#000000" points="2030.8808,-122 1871.1192,-122 1871.1192,-86 2030.8808,-86 2030.8808,-122"/>
<text text-anchor="middle" x="1951" y="-99.8" font-family="Times,serif" font-size="14.00" fill="#000000">AddCompanyComponent</text>
</g>
<!-- AddCompanyComponent&#45;&gt;AppModule -->
<g id="edge2" class="edge">
<title>AddCompanyComponent&#45;&gt;AppModule</title>
<path fill="none" stroke="#000000" d="M1951,-122.0449C1951,-143.6623 1951,-177 1951,-177 1951,-177 1129.8125,-177 1129.8125,-177"/>
<polygon fill="#000000" stroke="#000000" points="1129.8125,-173.5001 1119.8125,-177 1129.8125,-180.5001 1129.8125,-173.5001"/>
</g>
<!-- AppComponent -->
<g id="node3" class="node">
<title>AppComponent</title>
<polygon fill="#ffffb3" stroke="#000000" points="1852.9399,-122 1747.0601,-122 1747.0601,-86 1852.9399,-86 1852.9399,-122"/>
<text text-anchor="middle" x="1800" y="-99.8" font-family="Times,serif" font-size="14.00" fill="#000000">AppComponent</text>
</g>
<!-- AppComponent&#45;&gt;AppModule -->
<g id="edge3" class="edge">
<title>AppComponent&#45;&gt;AppModule</title>
<path fill="none" stroke="#000000" d="M1800,-122.2228C1800,-142.3652 1800,-172 1800,-172 1800,-172 1129.6744,-172 1129.6744,-172"/>
<polygon fill="#000000" stroke="#000000" points="1129.6745,-168.5001 1119.6744,-172 1129.6744,-175.5001 1129.6745,-168.5001"/>
</g>
<!-- CompanyComponent -->
<g id="node4" class="node">
<title>CompanyComponent</title>
<polygon fill="#ffffb3" stroke="#000000" points="1728.7744,-122 1593.2256,-122 1593.2256,-86 1728.7744,-86 1728.7744,-122"/>
<text text-anchor="middle" x="1661" y="-99.8" font-family="Times,serif" font-size="14.00" fill="#000000">CompanyComponent</text>
</g>
<!-- CompanyComponent&#45;&gt;AppModule -->
<g id="edge4" class="edge">
<title>CompanyComponent&#45;&gt;AppModule</title>
<path fill="none" stroke="#000000" d="M1661,-122.2222C1661,-140.8285 1661,-167 1661,-167 1661,-167 1129.9279,-167 1129.9279,-167"/>
<polygon fill="#000000" stroke="#000000" points="1129.928,-163.5001 1119.9279,-167 1129.9279,-170.5001 1129.928,-163.5001"/>
</g>
<!-- DetailCompanyComponent -->
<g id="node5" class="node">
<title>DetailCompanyComponent</title>
<polygon fill="#ffffb3" stroke="#000000" points="1574.9818,-122 1405.0182,-122 1405.0182,-86 1574.9818,-86 1574.9818,-122"/>
<text text-anchor="middle" x="1490" y="-99.8" font-family="Times,serif" font-size="14.00" fill="#000000">DetailCompanyComponent</text>
</g>
<!-- DetailCompanyComponent&#45;&gt;AppModule -->
<g id="edge5" class="edge">
<title>DetailCompanyComponent&#45;&gt;AppModule</title>
<path fill="none" stroke="#000000" d="M1490,-122.0336C1490,-139.0597 1490,-162 1490,-162 1490,-162 1129.7721,-162 1129.7721,-162"/>
<polygon fill="#000000" stroke="#000000" points="1129.7721,-158.5001 1119.7721,-162 1129.772,-165.5001 1129.7721,-158.5001"/>
</g>
<!-- EditCompanyComponent -->
<g id="node6" class="node">
<title>EditCompanyComponent</title>
<polygon fill="#ffffb3" stroke="#000000" points="1386.608,-122 1227.392,-122 1227.392,-86 1386.608,-86 1386.608,-122"/>
<text text-anchor="middle" x="1307" y="-99.8" font-family="Times,serif" font-size="14.00" fill="#000000">EditCompanyComponent</text>
</g>
<!-- EditCompanyComponent&#45;&gt;AppModule -->
<g id="edge6" class="edge">
<title>EditCompanyComponent&#45;&gt;AppModule</title>
<path fill="none" stroke="#000000" d="M1307,-122.2396C1307,-137.5706 1307,-157 1307,-157 1307,-157 1129.7359,-157 1129.7359,-157"/>
<polygon fill="#000000" stroke="#000000" points="1129.7359,-153.5001 1119.7359,-157 1129.7358,-160.5001 1129.7359,-153.5001"/>
</g>
<!-- HomeComponent -->
<g id="node7" class="node">
<title>HomeComponent</title>
<polygon fill="#ffffb3" stroke="#000000" points="1209.5451,-122 1094.4549,-122 1094.4549,-86 1209.5451,-86 1209.5451,-122"/>
<text text-anchor="middle" x="1152" y="-99.8" font-family="Times,serif" font-size="14.00" fill="#000000">HomeComponent</text>
</g>
<!-- HomeComponent&#45;&gt;AppModule -->
<g id="edge7" class="edge">
<title>HomeComponent&#45;&gt;AppModule</title>
<path fill="none" stroke="#000000" d="M1107.028,-122.1061C1107.028,-122.1061 1107.028,-140.991 1107.028,-140.991"/>
<polygon fill="#000000" stroke="#000000" points="1103.5281,-140.9909 1107.028,-150.991 1110.5281,-140.991 1103.5281,-140.9909"/>
</g>
<!-- NavigationComponent -->
<g id="node8" class="node">
<title>NavigationComponent</title>
<polygon fill="#ffffb3" stroke="#000000" points="1075.5407,-122 932.4593,-122 932.4593,-86 1075.5407,-86 1075.5407,-122"/>
<text text-anchor="middle" x="1004" y="-99.8" font-family="Times,serif" font-size="14.00" fill="#000000">NavigationComponent</text>
</g>
<!-- NavigationComponent&#45;&gt;AppModule -->
<g id="edge8" class="edge">
<title>NavigationComponent&#45;&gt;AppModule</title>
<path fill="none" stroke="#000000" d="M1055.9709,-122.1061C1055.9709,-122.1061 1055.9709,-140.991 1055.9709,-140.991"/>
<polygon fill="#000000" stroke="#000000" points="1052.471,-140.9909 1055.9709,-150.991 1059.471,-140.991 1052.471,-140.9909"/>
</g>
<!-- AppComponent  -->
<g id="node15" class="node">
<title>AppComponent </title>
<polygon fill="#fb8072" stroke="#000000" points="1132.439,-252 1023.561,-252 1023.561,-216 1132.439,-216 1132.439,-252"/>
<text text-anchor="middle" x="1078" y="-229.8" font-family="Times,serif" font-size="14.00" fill="#000000">AppComponent </text>
</g>
<!-- AppModule&#45;&gt;AppComponent  -->
<g id="edge14" class="edge">
<title>AppModule&#45;&gt;AppComponent </title>
<path fill="none" stroke="#000000" stroke-dasharray="5,2" d="M1064.0573,-187.1061C1064.0573,-187.1061 1064.0573,-205.991 1064.0573,-205.991"/>
<polygon fill="#000000" stroke="#000000" points="1060.5574,-205.9909 1064.0573,-215.991 1067.5574,-205.991 1060.5574,-205.9909"/>
</g>
<!-- AppModule&#45;&gt;AppComponent  -->
<g id="edge15" class="edge">
<title>AppModule&#45;&gt;AppComponent </title>
<path fill="none" stroke="#000000" stroke-dasharray="1,5" d="M1091.9427,-187.1061C1091.9427,-187.1061 1091.9427,-205.991 1091.9427,-205.991"/>
<polygon fill="#000000" stroke="#000000" points="1088.4428,-205.9909 1091.9427,-215.991 1095.4428,-205.991 1088.4428,-205.9909"/>
</g>
<!-- AppRoutingModule -->
<g id="node10" class="node">
<title>AppRoutingModule</title>
<polygon fill="#8dd3c7" stroke="#000000" points="908.2744,-122 905.2744,-126 884.2744,-126 881.2744,-122 779.7256,-122 779.7256,-86 908.2744,-86 908.2744,-122"/>
<text text-anchor="middle" x="844" y="-99.8" font-family="Times,serif" font-size="14.00" fill="#000000">AppRoutingModule</text>
</g>
<!-- AppRoutingModule&#45;&gt;AppModule -->
<g id="edge9" class="edge">
<title>AppRoutingModule&#45;&gt;AppModule</title>
<path fill="none" stroke="#000000" d="M844,-122.2396C844,-137.5706 844,-157 844,-157 844,-157 1026.1655,-157 1026.1655,-157"/>
<polygon fill="#000000" stroke="#000000" points="1026.1655,-160.5001 1036.1655,-157 1026.1655,-153.5001 1026.1655,-160.5001"/>
</g>
<!-- BrowseAssignmentModule -->
<g id="node11" class="node">
<title>BrowseAssignmentModule</title>
<polygon fill="#8dd3c7" stroke="#000000" points="761.6951,-122 758.6951,-126 737.6951,-126 734.6951,-122 592.3049,-122 592.3049,-86 761.6951,-86 761.6951,-122"/>
<text text-anchor="middle" x="677" y="-99.8" font-family="Times,serif" font-size="14.00" fill="#000000">BrowseAssignmentModule</text>
</g>
<!-- BrowseAssignmentModule&#45;&gt;AppModule -->
<g id="edge10" class="edge">
<title>BrowseAssignmentModule&#45;&gt;AppModule</title>
<path fill="none" stroke="#000000" d="M677,-122.0336C677,-139.0597 677,-162 677,-162 677,-162 1026.2208,-162 1026.2208,-162"/>
<polygon fill="#000000" stroke="#000000" points="1026.2208,-165.5001 1036.2208,-162 1026.2207,-158.5001 1026.2208,-165.5001"/>
</g>
<!-- DashboardModule -->
<g id="node12" class="node">
<title>DashboardModule</title>
<polygon fill="#8dd3c7" stroke="#000000" points="574.191,-122 571.191,-126 550.191,-126 547.191,-122 453.809,-122 453.809,-86 574.191,-86 574.191,-122"/>
<text text-anchor="middle" x="514" y="-99.8" font-family="Times,serif" font-size="14.00" fill="#000000">DashboardModule</text>
</g>
<!-- DashboardModule&#45;&gt;AppModule -->
<g id="edge11" class="edge">
<title>DashboardModule&#45;&gt;AppModule</title>
<path fill="none" stroke="#000000" d="M514,-122.2222C514,-140.8285 514,-167 514,-167 514,-167 1026.0691,-167 1026.0691,-167"/>
<polygon fill="#000000" stroke="#000000" points="1026.0691,-170.5001 1036.0691,-167 1026.0691,-163.5001 1026.0691,-170.5001"/>
</g>
<!-- MaterialModule -->
<g id="node13" class="node">
<title>MaterialModule</title>
<polygon fill="#8dd3c7" stroke="#000000" points="435.4706,-122 432.4706,-126 411.4706,-126 408.4706,-122 328.5294,-122 328.5294,-86 435.4706,-86 435.4706,-122"/>
<text text-anchor="middle" x="382" y="-99.8" font-family="Times,serif" font-size="14.00" fill="#000000">MaterialModule</text>
</g>
<!-- MaterialModule&#45;&gt;AppModule -->
<g id="edge12" class="edge">
<title>MaterialModule&#45;&gt;AppModule</title>
<path fill="none" stroke="#000000" d="M382,-122.2228C382,-142.3652 382,-172 382,-172 382,-172 1026.2883,-172 1026.2883,-172"/>
<polygon fill="#000000" stroke="#000000" points="1026.2883,-175.5001 1036.2883,-172 1026.2882,-168.5001 1026.2883,-175.5001"/>
</g>
<!-- RxFormModule -->
<g id="node14" class="node">
<title>RxFormModule</title>
<polygon fill="#8dd3c7" stroke="#000000" points="310.2204,-122 307.2204,-126 286.2204,-126 283.2204,-122 203.7796,-122 203.7796,-86 310.2204,-86 310.2204,-122"/>
<text text-anchor="middle" x="257" y="-99.8" font-family="Times,serif" font-size="14.00" fill="#000000">RxFormModule</text>
</g>
<!-- RxFormModule&#45;&gt;AppModule -->
<g id="edge13" class="edge">
<title>RxFormModule&#45;&gt;AppModule</title>
<path fill="none" stroke="#000000" d="M257,-122.0449C257,-143.6623 257,-177 257,-177 257,-177 1026.1578,-177 1026.1578,-177"/>
<polygon fill="#000000" stroke="#000000" points="1026.1578,-180.5001 1036.1578,-177 1026.1577,-173.5001 1026.1578,-180.5001"/>
</g>
<!-- TokenInterceptor -->
<g id="node16" class="node">
<title>TokenInterceptor</title>
<ellipse fill="#fdb462" stroke="#000000" cx="102" cy="-104" rx="78.1308" ry="18"/>
<text text-anchor="middle" x="102" y="-99.8" font-family="Times,serif" font-size="14.00" fill="#000000">TokenInterceptor</text>
</g>
<!-- TokenInterceptor&#45;&gt;AppModule -->
<g id="edge16" class="edge">
<title>TokenInterceptor&#45;&gt;AppModule</title>
<path fill="none" stroke="#000000" d="M102,-122.0908C102,-145.1328 102,-182 102,-182 102,-182 1026.0625,-182 1026.0625,-182"/>
<polygon fill="#000000" stroke="#000000" points="1026.0625,-185.5001 1036.0625,-182 1026.0625,-178.5001 1026.0625,-185.5001"/>
</g>
</g>
</svg>
